<svg width="28" height="20" viewBox="0 0 28 20" fill="none" xmlns="http://www.w3.org/2000/svg">
<path d="M25.2757 20L15.6831 13C14.9218 13.4444 14.0463 13.7963 13.0566 14.0556C12.0669 14.3148 11.0137 14.4444 9.89712 14.4444C7.131 14.4444 4.78995 13.7454 2.87397 12.3472C0.95799 10.9491 0 9.24074 0 7.22222C0 5.2037 0.95799 3.49537 2.87397 2.09722C4.78995 0.699074 7.131 0 9.89712 0C12.6632 0 15.0043 0.699074 16.9203 2.09722C18.8362 3.49537 19.7942 5.2037 19.7942 7.22222C19.7942 8.03704 19.6166 8.80556 19.2613 9.52778C18.906 10.25 18.4239 10.8889 17.8148 11.4444L27.4074 18.4444L25.2757 20ZM9.89712 12.2222C11.8004 12.2222 13.4182 11.7361 14.7505 10.7639C16.0828 9.79167 16.749 8.61111 16.749 7.22222C16.749 5.83333 16.0828 4.65278 14.7505 3.68056C13.4182 2.70833 11.8004 2.22222 9.89712 2.22222C7.99383 2.22222 6.37603 2.70833 5.04372 3.68056C3.71142 4.65278 3.04527 5.83333 3.04527 7.22222C3.04527 8.61111 3.71142 9.79167 5.04372 10.7639C6.37603 11.7361 7.99383 12.2222 9.89712 12.2222Z" fill="white"/>
</svg>
